OstrichSans-Regular.ufo
<glyph name="numbersign" format="1">
  <advance width="542"/>
  <unicode hex="0023"/>
  <outline>
    <contour>
      <point x="76" y="0" type="line"/>
      <point x="120" y="226" type="line"/>
      <point x="-20" y="226" type="line"/>
      <point x="-20" y="258" type="line"/>
      <point x="126" y="258" type="line"/>
      <point x="157" y="415" type="line"/>
      <point x="11" y="415" type="line"/>
      <point x="11" y="447" type="line"/>
      <point x="163" y="447" type="line"/>
      <point x="207" y="674" type="line"/>
      <point x="240" y="674" type="line"/>
      <point x="195" y="447" type="line"/>
      <point x="337" y="447" type="line"/>
      <point x="380" y="674" type="line"/>
      <point x="412" y="674" type="line"/>
      <point x="369" y="447" type="line"/>
      <point x="489" y="447" type="line"/>
      <point x="489" y="415" type="line"/>
      <point x="362" y="415" type="line"/>
      <point x="332" y="258" type="line"/>
      <point x="458" y="258" type="line"/>
      <point x="458" y="226" type="line"/>
      <point x="325" y="226" type="line"/>
      <point x="282" y="0" type="line"/>
      <point x="250" y="0" type="line"/>
      <point x="293" y="226" type="line"/>
      <point x="152" y="226" type="line"/>
      <point x="108" y="0" type="line"/>
    </contour>
    <contour>
      <point x="189" y="415" type="line"/>
      <point x="158" y="258" type="line"/>
      <point x="299" y="258" type="line"/>
      <point x="330" y="415" type="line"/>
    </contour>
  </outline>
</glyph>
<glyph name="dollar" format="1">
  <advance width="320"/>
  <unicode hex="0024"/>
  <outline>
    <contour>
      <point x="183" y="331"/>
      <point x="210" y="318"/>
      <point x="231" y="297" type="curve" smooth="yes"/>
      <point x="251" y="276"/>
      <point x="268" y="245"/>
      <point x="268" y="198" type="curve" smooth="yes"/>
      <point x="268" y="155"/>
      <point x="258" y="120"/>
      <point x="238" y="93" type="curve" smooth="yes"/>
      <point x="219" y="68"/>
      <point x="192" y="53"/>
      <point x="159" y="49" type="curve"/>
      <point x="159" y="0" type="line"/>
      <point x="128" y="0" type="line"/>
      <point x="128" y="49" type="line"/>
      <point x="101" y="52"/>
      <point x="74" y="61"/>
      <point x="54" y="84" type="curve" smooth="yes"/>
      <point x="33" y="107"/>
      <point x="19" y="143"/>
      <point x="19" y="202" type="curve" smooth="yes"/>
      <point x="19" y="218" type="line"/>
      <point x="50" y="218" type="line"/>
      <point x="50" y="202" type="line" smooth="yes"/>
      <point x="50" y="154"/>
      <point x="60" y="125"/>
      <point x="75" y="107" type="curve" smooth="yes"/>
      <point x="90" y="89"/>
      <point x="109" y="81"/>
      <point x="128" y="80" type="curve"/>
      <point x="128" y="323" type="line"/>
      <point x="125" y="324"/>
      <point x="123" y="326"/>
      <point x="120" y="327" type="curve"/>
      <point x="103" y="336"/>
      <point x="77" y="349"/>
      <point x="57" y="371" type="curve" smooth="yes"/>
      <point x="36" y="393"/>
      <point x="19" y="424"/>
      <point x="19" y="471" type="curve" smooth="yes"/>
      <point x="19" y="559"/>
      <point x="60" y="616"/>
      <point x="128" y="624" type="curve"/>
      <point x="128" y="674" type="line"/>
      <point x="159" y="674" type="line"/>
      <point x="159" y="624" type="line"/>
      <point x="186" y="621"/>
      <point x="213" y="613"/>
      <point x="234" y="590" type="curve"/>
      <point x="254" y="566"/>
      <point x="268" y="528"/>
      <point x="268" y="471" type="curve" smooth="yes"/>
      <point x="268" y="455" type="line"/>
      <point x="237" y="455" type="line"/>
      <point x="237" y="471" type="line" smooth="yes"/>
      <point x="237" y="519"/>
      <point x="227" y="549"/>
      <point x="212" y="567" type="curve" smooth="yes"/>
      <point x="197" y="585"/>
      <point x="178" y="590"/>
      <point x="159" y="593" type="curve"/>
      <point x="159" y="342" type="line"/>
      <point x="160" y="341"/>
      <point x="162" y="341"/>
      <point x="163" y="341" type="curve"/>
      <point x="164" y="340"/>
      <point x="165" y="340"/>
      <point x="166" y="339" type="curve"/>
    </contour>
    <contour>
      <point x="50" y="436"/>
      <point x="61" y="412"/>
      <point x="76" y="396" type="curve" smooth="yes"/>
      <point x="91" y="379"/>
      <point x="111" y="367"/>
      <point x="128" y="359" type="curve"/>
      <point x="128" y="592" type="line"/>
      <point x="100" y="588"/>
      <point x="80" y="572"/>
      <point x="68" y="549" type="curve" smooth="yes"/>
      <point x="55" y="526"/>
      <point x="50" y="499"/>
      <point x="50" y="471" type="curve" smooth="yes"/>
    </contour>
    <contour>
      <point x="159" y="81" type="line"/>
      <point x="208" y="88"/>
      <point x="237" y="130"/>
      <point x="237" y="198" type="curve" smooth="yes"/>
      <point x="237" y="233"/>
      <point x="226" y="256"/>
      <point x="211" y="273" type="curve"/>
      <point x="195" y="289"/>
      <point x="175" y="299"/>
      <point x="159" y="307" type="curve"/>
    </contour>
  </outline>
</glyph>
<glyph name="parenright" format="1">
  <advance width="158"/>
  <unicode hex="0029"/>
  <outline>
    <contour>
      <point x="13" y="29" type="line"/>
      <point x="20" y="36"/>
      <point x="28" y="45"/>
      <point x="38" y="60" type="curve" smooth="yes"/>
      <point x="43" y="67"/>
      <point x="48" y="77"/>
      <point x="53" y="88" type="curve" smooth="yes"/>
      <point x="72" y="129"/>
      <point x="94" y="207"/>
      <point x="94" y="339" type="curve" smooth="yes"/>
      <point x="94" y="404"/>
      <point x="89" y="457"/>
      <point x="81" y="498" type="curve" smooth="yes"/>
      <point x="73" y="538"/>
      <point x="63" y="568"/>
      <point x="54" y="588" type="curve" smooth="yes"/>
      <point x="44" y="610"/>
      <point x="35" y="625"/>
      <point x="27" y="633" type="curve"/>
      <point x="18" y="641"/>
      <point x="14" y="645"/>
      <point x="13" y="645" type="curve"/>
      <point x="14" y="645" type="line"/>
      <point x="30" y="672" type="line"/>
      <point x="31" y="671"/>
      <point x="37" y="666"/>
      <point x="48" y="657" type="curve"/>
      <point x="58" y="648"/>
      <point x="69" y="630"/>
      <point x="80" y="605" type="curve"/>
      <point x="111" y="542"/>
      <point x="126" y="453"/>
      <point x="126" y="339" type="curve" smooth="yes"/>
      <point x="126" y="203"/>
      <point x="103" y="120"/>
      <point x="80" y="70" type="curve" smooth="yes"/>
      <point x="68" y="45"/>
      <point x="57" y="27"/>
      <point x="47" y="18" type="curve" smooth="yes"/>
      <point x="36" y="8"/>
      <point x="31" y="3"/>
      <point x="30" y="2" type="curve"/>
    </contour>
  </outline>
</glyph>
<glyph name="period" format="1">
  <advance width="81"/>
  <unicode hex="002E"/>
  <outline>
    <contour>
      <point x="12" y="0" type="line"/>
      <point x="12" y="43" type="line"/>
      <point x="44" y="43" type="line"/>
      <point x="44" y="0" type="line"/>
      <point x="44" y="0" type="line"/>
    </contour>
  </outline>
</glyph>
<glyph name="slash" format="1">
  <advance width="384"/>
  <unicode hex="002F"/>
  <outline>
    <contour>
      <point x="325" y="674" type="line"/>
      <point x="55" y="0" type="line"/>
      <point x="21" y="0" type="line"/>
      <point x="291" y="674" type="line"/>
    </contour>
  </outline>
</glyph>
<glyph name="one" format="1">
  <advance width="194"/>
  <unicode hex="0031"/>
  <outline>
    <contour>
      <point x="141" y="674" type="line"/>
      <point x="141" y="0" type="line"/>
      <point x="109" y="0" type="line"/>
      <point x="109" y="620" type="line"/>
      <point x="32" y="521" type="line"/>
      <point x="8" y="541" type="line"/>
      <point x="110" y="674" type="line"/>
    </contour>
  </outline>
</glyph>
<glyph name="two" format="1">
  <advance width="320"/>
  <unicode hex="0032"/>
  <outline>
    <contour>
      <point x="262" y="0" type="line"/>
      <point x="246" y="0" type="line"/>
      <point x="137" y="0" type="line"/>
      <point x="12" y="0" type="line"/>
      <point x="12" y="16" type="line" smooth="yes"/>
      <point x="12" y="76"/>
      <point x="20" y="124"/>
      <point x="36" y="167" type="curve" smooth="yes"/>
      <point x="53" y="216"/>
      <point x="84" y="260"/>
      <point x="127" y="299" type="curve" smooth="yes"/>
      <point x="196" y="362"/>
      <point x="230" y="433"/>
      <point x="230" y="513" type="curve" smooth="yes"/>
      <point x="230" y="593"/>
      <point x="197" y="643"/>
      <point x="137" y="643" type="curve" smooth="yes"/>
      <point x="74" y="643"/>
      <point x="44" y="602"/>
      <point x="44" y="509" type="curve" smooth="yes"/>
      <point x="44" y="493" type="line"/>
      <point x="12" y="493" type="line"/>
      <point x="12" y="509" type="line" smooth="yes"/>
      <point x="12" y="614"/>
      <point x="53" y="674"/>
      <point x="137" y="674" type="curve" smooth="yes"/>
      <point x="217" y="674"/>
      <point x="262" y="605"/>
      <point x="262" y="513" type="curve" smooth="yes"/>
      <point x="262" y="422"/>
      <point x="224" y="343"/>
      <point x="148" y="275" type="curve" smooth="yes"/>
      <point x="77" y="212"/>
      <point x="47" y="139"/>
      <point x="44" y="31" type="curve"/>
      <point x="137" y="31" type="line"/>
      <point x="246" y="31" type="line"/>
      <point x="262" y="31" type="line"/>
    </contour>
  </outline>
</glyph>
<glyph name="eight" format="1">
  <advance width="332"/>
  <unicode hex="0038"/>
  <outline>
    <contour>
      <point x="225" y="330"/>
      <point x="237" y="320"/>
      <point x="246" y="307" type="curve"/>
      <point x="267" y="279"/>
      <point x="278" y="235"/>
      <point x="278" y="176" type="curve" smooth="yes"/>
      <point x="278" y="57"/>
      <point x="236" y="0"/>
      <point x="143" y="0" type="curve" smooth="yes"/>
      <point x="48" y="0"/>
      <point x="7" y="60"/>
      <point x="7" y="176" type="curve" smooth="yes"/>
      <point x="7" y="234"/>
      <point x="18" y="278"/>
      <point x="39" y="307" type="curve" smooth="yes"/>
      <point x="48" y="320"/>
      <point x="60" y="330"/>
      <point x="73" y="337" type="curve"/>
      <point x="60" y="344"/>
      <point x="48" y="354"/>
      <point x="39" y="367" type="curve" smooth="yes"/>
      <point x="18" y="396"/>
      <point x="7" y="440"/>
      <point x="7" y="498" type="curve" smooth="yes"/>
      <point x="7" y="614"/>
      <point x="48" y="674"/>
      <point x="143" y="674" type="curve" smooth="yes"/>
      <point x="236" y="674"/>
      <point x="278" y="617"/>
      <point x="278" y="498" type="curve" smooth="yes"/>
      <point x="278" y="439"/>
      <point x="267" y="395"/>
      <point x="246" y="367" type="curve"/>
      <point x="237" y="354"/>
      <point x="225" y="344"/>
      <point x="212" y="337" type="curve"/>
    </contour>
    <contour>
      <point x="81" y="364"/>
      <point x="107" y="353"/>
      <point x="143" y="353" type="curve" smooth="yes"/>
      <point x="215" y="353"/>
      <point x="246" y="394"/>
      <point x="246" y="498" type="curve" smooth="yes"/>
      <point x="246" y="602"/>
      <point x="215" y="643"/>
      <point x="143" y="643" type="curve" smooth="yes"/>
      <point x="71" y="643"/>
      <point x="39" y="602"/>
      <point x="39" y="498" type="curve" smooth="yes"/>
      <point x="39" y="446"/>
      <point x="47" y="409"/>
      <point x="64" y="386" type="curve" smooth="yes"/>
    </contour>
    <contour>
      <point x="238" y="87"/>
      <point x="246" y="124"/>
      <point x="246" y="176" type="curve" smooth="yes"/>
      <point x="246" y="280"/>
      <point x="215" y="322"/>
      <point x="143" y="322" type="curve" smooth="yes"/>
      <point x="71" y="322"/>
      <point x="39" y="280"/>
      <point x="39" y="176" type="curve" smooth="yes"/>
      <point x="39" y="72"/>
      <point x="71" y="31"/>
      <point x="143" y="31" type="curve" smooth="yes"/>
      <point x="179" y="31"/>
      <point x="205" y="42"/>
      <point x="221" y="64" type="curve" smooth="yes"/>
    </contour>
  </outline>
</glyph>
<glyph name="nine" format="1">
  <advance width="308"/>
  <unicode hex="0039"/>
  <outline>
    <contour>
      <point x="50" y="0"/>
      <point x="8" y="64"/>
      <point x="8" y="163" type="curve" smooth="yes"/>
      <point x="8" y="179" type="line"/>
      <point x="40" y="179" type="line"/>
      <point x="40" y="163" type="line" smooth="yes"/>
      <point x="40" y="76"/>
      <point x="73" y="31"/>
      <point x="133" y="31" type="curve" smooth="yes"/>
      <point x="172" y="31"/>
      <point x="195" y="57"/>
      <point x="209" y="94" type="curve" smooth="yes"/>
      <point x="223" y="130"/>
      <point x="226" y="177"/>
      <point x="226" y="220" type="curve" smooth="yes"/>
      <point x="226" y="296" type="line"/>
      <point x="205" y="263"/>
      <point x="173" y="244"/>
      <point x="133" y="244" type="curve" smooth="yes"/>
      <point x="50" y="244"/>
      <point x="8" y="306"/>
      <point x="8" y="422" type="curve" smooth="yes"/>
      <point x="8" y="496" type="line" smooth="yes"/>
      <point x="8" y="604"/>
      <point x="57" y="674"/>
      <point x="133" y="674" type="curve" smooth="yes"/>
      <point x="216" y="674"/>
      <point x="258" y="615"/>
      <point x="258" y="518" type="curve" smooth="yes"/>
      <point x="258" y="422" type="line"/>
      <point x="258" y="421" type="line"/>
      <point x="258" y="220" type="line" smooth="yes"/>
      <point x="258" y="83"/>
      <point x="218" y="0"/>
      <point x="133" y="0" type="curve" smooth="yes"/>
    </contour>
    <contour>
      <point x="76" y="643"/>
      <point x="40" y="584"/>
      <point x="40" y="496" type="curve" smooth="yes"/>
      <point x="40" y="422" type="line" smooth="yes"/>
      <point x="40" y="318"/>
      <point x="72" y="276"/>
      <point x="133" y="276" type="curve" smooth="yes"/>
      <point x="192" y="276"/>
      <point x="211" y="326"/>
      <point x="220" y="362" type="curve" smooth="yes"/>
      <point x="224" y="380"/>
      <point x="226" y="400"/>
      <point x="226" y="421" type="curve" smooth="yes"/>
      <point x="226" y="518" type="line" smooth="yes"/>
      <point x="226" y="601"/>
      <point x="194" y="643"/>
      <point x="133" y="643" type="curve" smooth="yes"/>
    </contour>
  </outline>
</glyph>
<glyph name="colon" format="1">
  <advance width="113"/>
  <unicode hex="003A"/>
  <outline>
    <contour>
      <point x="14" y="514" type="line"/>
      <point x="45" y="514" type="line"/>
      <point x="45" y="438" type="line"/>
      <point x="14" y="438" type="line"/>
    </contour>
    <contour>
      <point x="14" y="163" type="line"/>
      <point x="14" y="239" type="line"/>
      <point x="45" y="239" type="line"/>
      <point x="45" y="163" type="line"/>
    </contour>
  </outline>
</glyph>
<glyph name="equal" format="1">
  <advance width="312"/>
  <unicode hex="003D"/>
  <outline>
    <contour>
      <point x="257" y="411" type="line"/>
      <point x="13" y="411" type="line"/>
      <point x="13" y="442" type="line"/>
      <point x="257" y="442" type="line"/>
    </contour>
    <contour>
      <point x="257" y="201" type="line"/>
      <point x="13" y="201" type="line"/>
      <point x="13" y="232" type="line"/>
      <point x="257" y="232" type="line"/>
    </contour>
  </outline>
</glyph>
<glyph name="question" format="1">
  <advance width="303"/>
  <unicode hex="003F"/>
  <outline>
    <contour>
      <point x="254" y="593"/>
      <point x="264" y="554"/>
      <point x="264" y="507" type="curve" smooth="yes"/>
      <point x="264" y="459"/>
      <point x="251" y="425"/>
      <point x="235" y="399" type="curve" smooth="yes"/>
      <point x="219" y="373"/>
      <point x="200" y="356"/>
      <point x="185" y="344" type="curve"/>
      <point x="182" y="341"/>
      <point x="179" y="339"/>
      <point x="176" y="337" type="curve" smooth="yes"/>
      <point x="173" y="335"/>
      <point x="171" y="333"/>
      <point x="170" y="331" type="curve"/>
      <point x="143" y="300"/>
      <point x="127" y="224"/>
      <point x="128" y="119" type="curve" smooth="yes"/>
      <point x="128" y="116" type="line"/>
      <point x="128" y="100" type="line"/>
      <point x="97" y="100" type="line"/>
      <point x="97" y="116" type="line"/>
      <point x="97" y="119" type="line" smooth="yes"/>
      <point x="97" y="159"/>
      <point x="98" y="207"/>
      <point x="106" y="249" type="curve" smooth="yes"/>
      <point x="113" y="291"/>
      <point x="126" y="329"/>
      <point x="147" y="352" type="curve"/>
      <point x="151" y="357"/>
      <point x="157" y="363"/>
      <point x="165" y="368" type="curve"/>
      <point x="178" y="380"/>
      <point x="196" y="394"/>
      <point x="209" y="416" type="curve" smooth="yes"/>
      <point x="222" y="438"/>
      <point x="232" y="466"/>
      <point x="232" y="507" type="curve" smooth="yes"/>
      <point x="232" y="547"/>
      <point x="224" y="582"/>
      <point x="208" y="606" type="curve" smooth="yes"/>
      <point x="191" y="631"/>
      <point x="168" y="644"/>
      <point x="139" y="644" type="curve" smooth="yes"/>
      <point x="108" y="644"/>
      <point x="86" y="633"/>
      <point x="71" y="610" type="curve"/>
      <point x="54" y="587"/>
      <point x="46" y="551"/>
      <point x="46" y="502" type="curve" smooth="yes"/>
      <point x="46" y="487" type="line"/>
      <point x="14" y="487" type="line"/>
      <point x="14" y="502" type="line" smooth="yes"/>
      <point x="14" y="610"/>
      <point x="56" y="675"/>
      <point x="139" y="675" type="curve" smooth="yes"/>
      <point x="178" y="675"/>
      <point x="210" y="658"/>
      <point x="234" y="624" type="curve"/>
    </contour>
    <contour>
      <point x="96" y="44" type="line"/>
      <point x="128" y="44" type="line"/>
      <point x="128" y="1" type="line"/>
      <point x="96" y="1" type="line"/>
    </contour>
  </outline>
</glyph>
<glyph name="at" format="1">
  <advance width="647"/>
  <unicode hex="0040"/>
  <outline>
    <contour>
      <point x="555" y="111" type="line"/>
      <point x="574" y="86" type="line"/>
      <point x="561" y="76" type="line" smooth="yes"/>
      <point x="504" y="35"/>
      <point x="430" y="9"/>
      <point x="350" y="5" type="curve"/>
      <point x="328" y="5" type="line" smooth="yes"/>
      <point x="256" y="5"/>
      <point x="189" y="22"/>
      <point x="134" y="55" type="curve" smooth="yes"/>
      <point x="34" y="118"/>
      <point x="-11" y="222"/>
      <point x="12" y="355" type="curve" smooth="yes"/>
      <point x="24" y="431"/>
      <point x="56" y="494"/>
      <point x="104" y="545" type="curve" smooth="yes"/>
      <point x="148" y="590"/>
      <point x="203" y="620"/>
      <point x="266" y="633" type="curve" smooth="yes"/>
      <point x="325" y="645"/>
      <point x="383" y="641"/>
      <point x="433" y="622" type="curve" smooth="yes"/>
      <point x="483" y="603"/>
      <point x="525" y="570"/>
      <point x="554" y="525" type="curve" smooth="yes"/>
      <point x="575" y="492"/>
      <point x="587" y="448"/>
      <point x="591" y="404" type="curve" smooth="yes"/>
      <point x="594" y="359"/>
      <point x="589" y="312"/>
      <point x="573" y="272" type="curve" smooth="yes"/>
      <point x="558" y="236"/>
      <point x="526" y="207"/>
      <point x="490" y="188" type="curve" smooth="yes"/>
      <point x="453" y="168"/>
      <point x="412" y="161"/>
      <point x="383" y="169" type="curve" smooth="yes"/>
      <point x="355" y="176"/>
      <point x="340" y="198"/>
      <point x="343" y="229" type="curve"/>
      <point x="323" y="214"/>
      <point x="298" y="213"/>
      <point x="267" y="213" type="curve" smooth="yes"/>
      <point x="194" y="213"/>
      <point x="157" y="251"/>
      <point x="169" y="336" type="curve" smooth="yes"/>
      <point x="178" y="417"/>
      <point x="219" y="463"/>
      <point x="292" y="463" type="curve" smooth="yes"/>
      <point x="311" y="463"/>
      <point x="346" y="461"/>
      <point x="369" y="445" type="curve"/>
      <point x="373" y="442"/>
      <point x="376" y="440"/>
      <point x="377" y="438" type="curve"/>
      <point x="378" y="443"/>
      <point x="379" y="446"/>
      <point x="379" y="446" type="curve"/>
      <point x="381" y="461" type="line"/>
      <point x="412" y="456" type="line"/>
      <point x="410" y="440" type="line"/>
      <point x="410" y="440"/>
      <point x="409" y="435"/>
      <point x="408" y="426" type="curve"/>
      <point x="406" y="417"/>
      <point x="404" y="405"/>
      <point x="402" y="391" type="curve"/>
      <point x="399" y="377"/>
      <point x="397" y="362"/>
      <point x="394" y="345" type="curve" smooth="yes"/>
      <point x="391" y="328"/>
      <point x="388" y="311"/>
      <point x="386" y="296" type="curve"/>
      <point x="383" y="280"/>
      <point x="381" y="266"/>
      <point x="379" y="254" type="curve" smooth="yes"/>
      <point x="377" y="241"/>
      <point x="376" y="232"/>
      <point x="375" y="227" type="curve" smooth="yes"/>
      <point x="372" y="212"/>
      <point x="378" y="203"/>
      <point x="392" y="199" type="curve"/>
      <point x="397" y="198"/>
      <point x="403" y="197"/>
      <point x="408" y="197" type="curve" smooth="yes"/>
      <point x="429" y="197"/>
      <point x="459" y="205"/>
      <point x="485" y="221" type="curve" smooth="yes"/>
      <point x="511" y="236"/>
      <point x="533" y="257"/>
      <point x="544" y="284" type="curve" smooth="yes"/>
      <point x="557" y="319"/>
      <point x="563" y="360"/>
      <point x="560" y="401" type="curve" smooth="yes"/>
      <point x="556" y="441"/>
      <point x="545" y="480"/>
      <point x="528" y="508" type="curve" smooth="yes"/>
      <point x="503" y="548"/>
      <point x="464" y="577"/>
      <point x="420" y="593" type="curve" smooth="yes"/>
      <point x="376" y="609"/>
      <point x="325" y="613"/>
      <point x="273" y="602" type="curve" smooth="yes"/>
      <point x="225" y="591"/>
      <point x="175" y="568"/>
      <point x="132" y="527" type="curve" smooth="yes"/>
      <point x="89" y="486"/>
      <point x="55" y="427"/>
      <point x="43" y="350" type="curve" smooth="yes"/>
      <point x="24" y="231"/>
      <point x="62" y="137"/>
      <point x="151" y="82" type="curve" smooth="yes"/>
      <point x="207" y="47"/>
      <point x="277" y="33"/>
      <point x="348" y="37" type="curve" smooth="yes"/>
      <point x="419" y="41"/>
      <point x="488" y="62"/>
      <point x="543" y="102" type="curve" smooth="yes"/>
    </contour>
    <contour>
      <point x="300" y="245"/>
      <point x="317" y="247"/>
      <point x="330" y="259" type="curve"/>
      <point x="345" y="274"/>
      <point x="354" y="306"/>
      <point x="365" y="363" type="curve" smooth="yes"/>
      <point x="368" y="382"/>
      <point x="368" y="395"/>
      <point x="365" y="403" type="curve"/>
      <point x="357" y="418"/>
      <point x="348" y="424"/>
      <point x="328" y="428" type="curve" smooth="yes"/>
      <point x="317" y="430"/>
      <point x="305" y="431"/>
      <point x="292" y="431" type="curve" smooth="yes"/>
      <point x="264" y="431"/>
      <point x="243" y="423"/>
      <point x="228" y="408" type="curve"/>
      <point x="213" y="391"/>
      <point x="204" y="367"/>
      <point x="200" y="332" type="curve" smooth="yes"/>
      <point x="192" y="263"/>
      <point x="214" y="245"/>
      <point x="267" y="245" type="curve" smooth="yes"/>
    </contour>
  </outline>
</glyph>
<glyph name="K" format="1">
  <advance width="360"/>
  <unicode hex="004B"/>
  <outline>
    <contour>
      <point x="127" y="365" type="line"/>
      <point x="334" y="0" type="line"/>
      <point x="298" y="0" type="line"/>
      <point x="108" y="335" type="line"/>
      <point x="40" y="234" type="line"/>
      <point x="40" y="0" type="line"/>
      <point x="8" y="0" type="line"/>
      <point x="8" y="674" type="line"/>
      <point x="40" y="674" type="line"/>
      <point x="40" y="291" type="line"/>
      <point x="296" y="674" type="line"/>
      <point x="334" y="674" type="line"/>
    </contour>
  </outline>
</glyph>
<glyph name="M" format="1">
  <advance width="473"/>
  <unicode hex="004D"/>
  <outline>
    <contour>
      <point x="38" y="0" type="line"/>
      <point x="7" y="0" type="line"/>
      <point x="7" y="674" type="line"/>
      <point x="34" y="674" type="line"/>
      <point x="207" y="73" type="line"/>
      <point x="379" y="674" type="line"/>
      <point x="407" y="674" type="line"/>
      <point x="407" y="0" type="line"/>
      <point x="375" y="0" type="line"/>
      <point x="375" y="546" type="line"/>
      <point x="219" y="0" type="line"/>
      <point x="195" y="0" type="line"/>
      <point x="38" y="546" type="line"/>
    </contour>
  </outline>
</glyph>
<glyph name="R" format="1">
  <advance width="348"/>
  <unicode hex="0052"/>
  <outline>
    <contour>
      <point x="275" y="278"/>
      <point x="290" y="239"/>
      <point x="290" y="188" type="curve" smooth="yes"/>
      <point x="290" y="1" type="line"/>
      <point x="258" y="1" type="line"/>
      <point x="258" y="188" type="line" smooth="yes"/>
      <point x="258" y="269"/>
      <point x="212" y="316"/>
      <point x="132" y="316" type="curve" smooth="yes"/>
      <point x="117" y="316" type="line"/>
      <point x="42" y="316" type="line"/>
      <point x="42" y="1" type="line"/>
      <point x="11" y="1" type="line"/>
      <point x="11" y="675" type="line"/>
      <point x="132" y="675" type="line" smooth="yes"/>
      <point x="240" y="675"/>
      <point x="288" y="619"/>
      <point x="288" y="496" type="curve" smooth="yes"/>
      <point x="288" y="436"/>
      <point x="276" y="391"/>
      <point x="251" y="362" type="curve" smooth="yes"/>
      <point x="240" y="349"/>
      <point x="227" y="339"/>
      <point x="211" y="331" type="curve"/>
      <point x="224" y="325"/>
      <point x="235" y="317"/>
      <point x="245" y="307" type="curve" smooth="yes"/>
    </contour>
    <contour>
      <point x="132" y="348" type="line" smooth="yes"/>
      <point x="221" y="348"/>
      <point x="257" y="392"/>
      <point x="257" y="496" type="curve" smooth="yes"/>
      <point x="257" y="601"/>
      <point x="221" y="643"/>
      <point x="132" y="643" type="curve" smooth="yes"/>
      <point x="42" y="643" type="line"/>
      <point x="42" y="348" type="line"/>
      <point x="117" y="348" type="line"/>
    </contour>
  </outline>
</glyph>
<glyph name="underscore" format="1">
  <advance width="461"/>
  <unicode hex="005F"/>
  <outline>
    <contour>
      <point x="20" y="-31" type="line"/>
      <point x="20" y="0" type="line"/>
      <point x="424" y="0" type="line"/>
      <point x="424" y="-31" type="line"/>
      <point x="424" y="-31" type="line"/>
    </contour>
  </outline>
</glyph>
<glyph name="a" format="1">
  <advance width="392"/>
  <unicode hex="0061"/>
  <outline>
    <contour>
      <point x="42" y="0" type="line"/>
      <point x="10" y="0" type="line"/>
      <point x="63" y="234" type="line"/>
      <point x="63" y="237" type="line"/>
      <point x="63" y="237" type="line"/>
      <point x="165" y="674" type="line"/>
      <point x="190" y="674" type="line"/>
      <point x="344" y="0" type="line"/>
      <point x="312" y="0" type="line"/>
      <point x="266" y="206" type="line"/>
      <point x="88" y="206" type="line"/>
    </contour>
    <contour>
      <point x="177" y="589" type="line"/>
      <point x="96" y="237" type="line"/>
      <point x="259" y="237" type="line"/>
    </contour>
  </outline>
</glyph>
<glyph name="i" format="1">
  <advance width="109"/>
  <unicode hex="0069"/>
  <outline>
    <contour>
      <point x="23" y="0" type="line"/>
      <point x="23" y="674" type="line"/>
      <point x="54" y="674" type="line"/>
      <point x="54" y="0" type="line"/>
      <point x="54" y="0" type="line"/>
    </contour>
  </outline>
</glyph>
<glyph name="l" format="1">
  <advance width="295"/>
  <unicode hex="006C"/>
  <outline>
    <contour>
      <point x="4" y="0" type="line"/>
      <point x="4" y="674" type="line"/>
      <point x="36" y="674" type="line"/>
      <point x="36" y="31" type="line"/>
      <point x="262" y="31" type="line"/>
      <point x="262" y="0" type="line"/>
      <point x="262" y="0" type="line"/>
    </contour>
  </outline>
</glyph>
<glyph name="o" format="1">
  <advance width="356"/>
  <unicode hex="006F"/>
  <outline>
    <contour>
      <point x="121" y="0"/>
      <point x="85" y="7"/>
      <point x="57" y="34" type="curve" smooth="yes"/>
      <point x="29" y="61"/>
      <point x="10" y="104"/>
      <point x="10" y="179" type="curve" smooth="yes"/>
      <point x="10" y="496" type="line" smooth="yes"/>
      <point x="10" y="611"/>
      <point x="58" y="674"/>
      <point x="153" y="674" type="curve" smooth="yes"/>
      <point x="249" y="674"/>
      <point x="297" y="612"/>
      <point x="297" y="496" type="curve" smooth="yes"/>
      <point x="297" y="179" type="line" smooth="yes"/>
      <point x="297" y="104"/>
      <point x="278" y="61"/>
      <point x="250" y="34" type="curve" smooth="yes"/>
      <point x="222" y="7"/>
      <point x="186" y="0"/>
      <point x="153" y="0" type="curve" smooth="yes"/>
    </contour>
    <contour>
      <point x="77" y="643"/>
      <point x="41" y="596"/>
      <point x="41" y="496" type="curve" smooth="yes"/>
      <point x="41" y="179" type="line" smooth="yes"/>
      <point x="41" y="78"/>
      <point x="78" y="31"/>
      <point x="153" y="31" type="curve" smooth="yes"/>
      <point x="226" y="31"/>
      <point x="265" y="75"/>
      <point x="265" y="179" type="curve" smooth="yes"/>
      <point x="265" y="496" type="line" smooth="yes"/>
      <point x="265" y="599"/>
      <point x="228" y="643"/>
      <point x="153" y="643" type="curve" smooth="yes"/>
    </contour>
  </outline>
</glyph>
<glyph name="w" format="1">
  <advance width="651"/>
  <unicode hex="0077"/>
  <outline>
    <contour>
      <point x="605" y="674" type="line"/>
      <point x="458" y="0" type="line"/>
      <point x="432" y="0" type="line"/>
      <point x="303" y="585" type="line"/>
      <point x="174" y="0" type="line"/>
      <point x="149" y="0" type="line"/>
      <point x="0" y="674" type="line"/>
      <point x="32" y="674" type="line"/>
      <point x="162" y="89" type="line"/>
      <point x="291" y="674" type="line"/>
      <point x="316" y="674" type="line"/>
      <point x="445" y="89" type="line"/>
      <point x="572" y="674" type="line"/>
    </contour>
  </outline>
</glyph>
<glyph name="endash" format="1">
  <advance width="299"/>
  <unicode hex="2013"/>
  <outline>
    <contour>
      <point x="13" y="321" type="line"/>
      <point x="13" y="352" type="line"/>
      <point x="257" y="352" type="line"/>
      <point x="257" y="321" type="line"/>
      <point x="257" y="321" type="line"/>
    </contour>
  </outline>
</glyph>
<glyph name="quoteright" format="1">
  <advance width="81"/>
  <unicode hex="2019"/>
  <outline>
    <contour>
      <point x="10" y="674" type="line"/>
      <point x="41" y="674" type="line"/>
      <point x="41" y="586" type="line"/>
      <point x="10" y="586" type="line"/>
    </contour>
  </outline>
</glyph>
<glyph name="quotedblleft" format="1">
  <advance width="150"/>
  <unicode hex="201C"/>
  <outline>
    <contour>
      <point x="10" y="586" type="line"/>
      <point x="10" y="674" type="line"/>
      <point x="41" y="674" type="line"/>
      <point x="41" y="586" type="line"/>
    </contour>
    <contour>
      <point x="69" y="674" type="line"/>
      <point x="101" y="674" type="line"/>
      <point x="101" y="586" type="line"/>
      <point x="69" y="586" type="line"/>
    </contour>
  </outline>
</glyph>
